HIERARCHY
ROOT Hips
{
	OFFSET -0.001795 -0.223333 0.028219
	CHANNELS 6 Xposition Yposition Zposition Zrotation Yrotation Xrotation 
	JOINT LeftUpLeg
	{
		OFFSET 0.069520 -0.091406 -0.006815
		CHANNELS 3 Zrotation Yrotation Xrotation
		JOINT LeftLeg
		{
			OFFSET 0.034277 -0.375199 -0.004496
			CHANNELS 3 Zrotation Yrotation Xrotation
			JOINT LeftFoot
			{
				OFFSET -0.013596 -0.397961 -0.043693
				CHANNELS 3 Zrotation Yrotation Xrotation
				JOINT LeftToe
				{
					OFFSET 0.026358 -0.055791 0.119288
					CHANNELS 3 Zrotation Yrotation Xrotation
					End Site
					{
						OFFSET 0.000000 0.000000 0.000000
					}
				}
			}
		}
	}
	JOINT RightUpLeg
	{
		OFFSET -0.067670 -0.090522 -0.004320
		CHANNELS 3 Zrotation Yrotation Xrotation
		JOINT RightLeg
		{
			OFFSET -0.038290 -0.382569 -0.008850
			CHANNELS 3 Zrotation Yrotation Xrotation
			JOINT RightFoot
			{
				OFFSET 0.015774 -0.398415 -0.042312
				CHANNELS 3 Zrotation Yrotation Xrotation
				JOINT RightToe
				{
					OFFSET -0.025372 -0.048144 0.123348
					CHANNELS 3 Zrotation Yrotation Xrotation
					End Site
					{
						OFFSET 0.000000 0.000000 0.000000
					}
				}
			}
		}
	}
	JOINT Spine
	{
		OFFSET -0.002533 0.108963 -0.026696
		CHANNELS 3 Zrotation Yrotation Xrotation
		JOINT Spine1
		{
			OFFSET 0.005487 0.135180 0.001092
			CHANNELS 3 Zrotation Yrotation Xrotation
			JOINT Spine2
			{
				OFFSET 0.001457 0.052922 0.025425
				CHANNELS 3 Zrotation Yrotation Xrotation
				JOINT Neck
				{
					OFFSET -0.002778 0.213870 -0.042857
					CHANNELS 3 Zrotation Yrotation Xrotation
					JOINT Head
					{
						OFFSET 0.005152 0.064970 0.051349
						CHANNELS 3 Zrotation Yrotation Xrotation
						End Site
						{
							OFFSET 0.000000 0.000000 0.000000
						}
					}
				}
				JOINT LeftShoulder
				{
					OFFSET 0.078845 0.121749 -0.034090
					CHANNELS 3 Zrotation Yrotation Xrotation
					JOINT LeftArm
					{
						OFFSET 0.090977 0.030469 -0.008868
						CHANNELS 3 Zrotation Yrotation Xrotation
						JOINT LeftForeArm
						{
							OFFSET 0.259612 -0.012772 -0.027456
							CHANNELS 3 Zrotation Yrotation Xrotation
							JOINT LeftHand
							{
								OFFSET 0.249234 0.008986 -0.001171
								CHANNELS 3 Zrotation Yrotation Xrotation
								End Site
								{
									OFFSET 0.000000 0.000000 0.000000
								}
							}
						}
					}
				}
				JOINT RightShoulder
				{
					OFFSET -0.081759 0.118833 -0.038615
					CHANNELS 3 Zrotation Yrotation Xrotation
					JOINT RightArm
					{
						OFFSET -0.096012 0.032551 -0.009143
						CHANNELS 3 Zrotation Yrotation Xrotation
						JOINT RightForeArm
						{
							OFFSET -0.253742 -0.013329 -0.021401
							CHANNELS 3 Zrotation Yrotation Xrotation
							JOINT RightHand
							{
								OFFSET -0.255298 0.007772 -0.005559
								CHANNELS 3 Zrotation Yrotation Xrotation
								End Site
								{
									OFFSET 0.000000 0.000000 0.000000
								}
							}
						}
					}
				}
			}
		}
	}
}
MOTION
Frames: 10
Frame Time: 0.050000
0.000000 0.951284 0.000000 -2.064333 -1.662102 5.903223 5.669735 -0.415635 -7.166855 -1.622102 0.085232 5.387322 4.971166 11.642168 6.514910 0.000000 0.000000 0.000000 -0.083122 0.784751 -7.826884 -0.608355 0.353980 6.235639 -2.045775 -9.021140 11.692736 0.000000 0.000000 0.000000 5.090502 0.381305 -5.905590 -1.900211 0.899065 -1.478230 -3.852426 4.756349 -4.273568 9.120315 -4.345902 -12.334590 0.000000 0.000000 0.000000 -2.699860 -20.315248 6.795441 0.380708 -49.454083 -3.124029 59.041223 -8.211322 -4.681081 0.000000 0.000000 0.000000 0.658029 14.069716 5.177192 -2.526812 48.994616 -3.100165 -56.754147 1.126052 1.641749 0.000000 0.000000 0.000000 
-0.000450 0.950818 0.004230 -2.802410 -1.016102 6.312546 6.485488 -0.386735 -6.874802 -1.285002 0.053151 4.095022 4.639044 11.137123 6.825224 0.000000 0.000000 0.000000 0.934996 0.790645 -7.598729 -1.090380 0.449494 6.678108 -1.734952 -7.851944 9.885078 0.000000 0.000000 0.000000 5.500061 0.502319 -7.241980 -0.853436 0.395338 0.578735 -5.102943 5.218744 -6.138719 10.595902 -5.086422 -12.529142 0.000000 0.000000 0.000000 -6.045133 -21.725654 7.292509 -0.250615 -49.220399 -2.764537 54.528668 -10.275371 -5.320035 0.000000 0.000000 0.000000 2.070953 14.607002 5.615378 -1.338624 47.890651 -2.432053 -54.081364 2.049736 1.274451 0.000000 0.000000 0.000000 
-0.000532 0.949950 0.008274 -2.603762 -2.564091 5.203014 6.105406 -0.308570 -5.348839 -1.357639 0.066012 4.548895 5.330967 12.261342 6.671606 0.000000 0.000000 0.000000 0.115062 0.689253 -6.842743 -1.169612 0.554113 8.180351 -0.057898 -4.108156 8.350166 0.000000 0.000000 0.000000 6.793818 0.473157 -6.092878 -2.520158 1.166304 -3.389162 -4.747446 6.251157 -1.992069 11.568963 -5.701177 -13.301944 0.000000 0.000000 0.000000 -7.750073 -21.453874 7.351523 1.022584 -48.593769 -3.354809 48.584601 -12.525964 -5.470428 0.000000 0.000000 0.000000 3.386608 15.876333 6.275146 -1.365519 46.673136 -2.602311 -51.462790 7.100366 -1.171018 0.000000 0.000000 0.000000 
-0.000233 0.949870 0.011975 -2.922036 -1.443841 5.351412 6.565042 -0.323758 -5.647571 -1.351559 0.050701 4.859865 4.886604 11.458369 6.258646 0.000000 0.000000 0.000000 0.767446 0.694373 -6.742983 -1.071231 0.549476 8.583929 -1.036835 -5.903596 8.044520 0.000000 0.000000 0.000000 7.014143 0.602992 -7.404540 -2.569802 1.205497 -1.855567 -5.015049 6.146928 -2.790206 12.123617 -5.981120 -13.281861 0.000000 0.000000 0.000000 -9.682429 -22.480386 7.759963 1.706198 -48.408953 -3.531617 42.078074 -12.538496 -4.577887 0.000000 0.000000 0.000000 4.806259 16.069168 6.612205 -1.520378 46.044231 -2.586475 -43.632072 8.432925 -1.457737 0.000000 0.000000 0.000000 
0.000402 0.950118 0.015345 -2.747108 -1.678500 4.676074 6.392758 -0.299627 -5.164479 -1.531295 0.064564 5.752011 4.970938 11.588636 6.200593 0.000000 0.000000 0.000000 0.384398 0.632686 -6.233975 -0.563910 0.514674 9.665661 -1.284478 -6.177058 7.281635 0.000000 0.000000 0.000000 7.077867 0.613519 -7.309808 -2.761120 1.291076 -2.182255 -5.379633 6.716191 -2.266190 12.565573 -6.157721 -13.682299 0.000000 0.000000 0.000000 -10.510346 -22.683106 7.810975 1.396642 -47.462565 -3.351805 36.190649 -12.899999 -3.930754 0.000000 0.000000 0.000000 5.661987 16.247830 6.871993 -1.299137 44.225761 -2.434855 -36.626203 10.323046 -1.772680 0.000000 0.000000 0.000000 
0.001504 0.950895 0.018251 -2.756862 -1.532449 4.681605 6.284531 -0.308885 -5.269575 -1.432839 0.039113 6.185092 4.903136 11.492659 6.303919 0.000000 0.000000 0.000000 0.336743 0.605063 -5.974990 -0.503642 0.491583 9.462784 -1.357599 -6.454024 7.692961 0.000000 0.000000 0.000000 6.958284 0.666717 -7.881537 -2.755082 1.299263 -0.910834 -5.335124 6.528000 -3.470260 12.178642 -5.838208 -13.768328 0.000000 0.000000 0.000000 -11.170580 -21.432103 7.224468 0.893479 -46.134277 -2.964047 30.460730 -12.792236 -3.149705 0.000000 0.000000 0.000000 5.363837 15.741783 6.597632 -0.948013 42.842756 -2.206212 -28.922431 9.996660 -1.286079 0.000000 0.000000 0.000000 
0.002817 0.951474 0.020613 -2.820828 -1.517152 4.626463 6.305091 -0.300771 -5.061505 -1.422920 0.035422 6.285326 4.743436 11.185317 6.177812 0.000000 0.000000 0.000000 0.362698 0.618657 -6.099760 -0.387736 0.490795 9.904372 -1.574474 -7.049707 8.152857 0.000000 0.000000 0.000000 6.792672 0.671347 -7.993887 -2.822154 1.327660 -1.277452 -4.813355 6.324504 -2.943718 12.006755 -5.801086 -13.665786 0.000000 0.000000 0.000000 -11.382156 -20.444468 6.860185 1.347023 -43.554561 -2.892088 26.443667 -11.600581 -2.388439 0.000000 0.000000 0.000000 5.154943 15.122017 6.257702 -1.177596 40.721896 -2.203118 -23.329605 9.218956 -0.879043 0.000000 0.000000 0.000000 
0.004038 0.951974 0.022588 -3.036805 -1.282555 4.536900 6.365779 -0.296629 -4.917989 -1.214485 -0.003475 6.365023 4.654180 11.026301 6.123288 0.000000 0.000000 0.000000 0.575337 0.613059 -6.004429 -0.298213 0.465957 9.805801 -1.826009 -7.820736 9.094851 0.000000 0.000000 0.000000 6.616807 0.646795 -7.855016 -2.461433 1.164607 -0.657504 -4.942076 6.243598 -4.106546 11.136602 -5.524524 -12.270698 0.000000 0.000000 0.000000 -10.805929 -19.770539 6.484601 1.303124 -40.570300 -2.586436 22.459260 -9.470221 -1.597142 0.000000 0.000000 0.000000 5.692233 13.602504 5.672645 -1.037904 37.919391 -1.995946 -19.177515 8.334686 -0.553050 0.000000 0.000000 0.000000 
0.004851 0.952255 0.024266 -3.291220 -1.606379 4.668874 6.651071 -0.277325 -4.623200 -1.392811 0.035456 6.063996 4.738164 11.124639 5.910717 0.000000 0.000000 0.000000 1.009122 0.611502 -5.932684 -0.509414 0.496216 9.514130 -1.974641 -8.211228 9.292878 0.000000 0.000000 0.000000 6.721691 0.646015 -7.779269 -2.758768 1.299740 -1.059921 -4.372103 5.704869 -3.323743 10.405319 -5.271887 -11.695044 0.000000 0.000000 0.000000 -10.515175 -18.600648 6.138365 1.719189 -36.977396 -2.406539 20.624703 -6.809483 -1.020768 0.000000 0.000000 0.000000 5.733286 12.129182 4.941873 0.415648 35.271072 -1.581625 -18.105796 7.745808 -0.447119 0.000000 0.000000 0.000000 
0.005353 0.952376 0.025952 -3.406420 -1.430933 4.938779 6.956261 -0.283101 -4.811893 -1.898913 0.118422 5.996059 4.894393 11.408598 5.877881 0.000000 0.000000 0.000000 1.010546 0.626788 -6.071945 -0.602287 0.508999 9.466532 -1.649260 -7.590660 9.450646 0.000000 0.000000 0.000000 6.215558 0.601808 -7.653091 -2.361886 1.115587 -1.040423 -4.459799 5.531034 -3.355428 8.987374 -4.333210 -11.829724 0.000000 0.000000 0.000000 -9.507933 -17.024295 5.449039 0.779712 -33.699362 -1.938388 19.541461 -4.861382 -0.695929 0.000000 0.000000 0.000000 6.832448 9.914608 4.064855 3.013818 31.584520 -0.955759 -18.523964 8.472432 -0.539364 0.000000 0.000000 0.000000 
